<?xml version="1.0" standalone="no"?>
<!DOCTYPE svg PUBLIC "-//W3C//DTD SVG 20010904//EN"
 "http://www.w3.org/TR/2001/REC-SVG-20010904/DTD/svg10.dtd">
<svg version="1.0" xmlns="http://www.w3.org/2000/svg"
 width="1413.000000pt" height="731.000000pt" viewBox="0 0 1413.000000 731.000000"
 preserveAspectRatio="xMidYMid meet">

<g transform="translate(0.000000,731.000000) scale(0.100000,-0.100000)"
fill="#000000" stroke="none">
<path d="M0 3655 l0 -3655 7065 0 7065 0 0 3655 0 3655 -50 0 -50 0 0 -620 0
-620 -2645 0 -2645 0 0 620 0 620 -150 0 -150 0 0 -620 0 -620 -2650 0 -2650
0 0 620 0 620 -1570 0 -1570 0 0 -3655z m1581 2914 c-12 -19 -21 -42 -21 -51
0 -17 -20 -24 -33 -12 -5 6 18 44 52 87 23 28 24 12 2 -24z m-167 -34 c-28
-77 -33 -172 -9 -181 8 -4 26 1 40 10 27 18 30 15 15 -15 -13 -24 -1 -25 42
-3 16 9 27 11 24 5 -4 -6 -3 -11 3 -11 6 0 15 10 22 22 11 20 12 20 21 4 6
-10 8 -31 6 -47 -3 -16 -1 -29 3 -29 16 0 50 45 56 73 4 17 17 34 35 43 16 8
26 19 23 24 -8 13 61 63 158 114 l87 46 -36 -52 c-47 -67 -111 -138 -118 -130
-3 3 -17 -5 -31 -18 -14 -13 -28 -21 -31 -17 -4 3 -16 -5 -27 -19 -10 -14 -26
-23 -33 -20 -8 3 -14 2 -14 -3 0 -13 22 -29 52 -36 31 -8 68 -53 92 -110 9
-22 20 -42 24 -45 4 -3 20 -30 36 -60 l28 -55 -25 24 -26 23 -21 -41 c-27 -54
-84 -117 -133 -148 -35 -22 -43 -23 -88 -14 -28 6 -65 11 -84 11 -39 0 -125
32 -167 61 -39 28 -38 1 2 -44 17 -19 30 -41 30 -48 0 -8 -15 -44 -34 -81 -19
-36 -32 -69 -29 -72 4 -3 1 -6 -6 -6 -14 0 -84 43 -123 76 -27 22 -27 23 -7
29 20 7 19 8 -11 26 -30 19 -60 71 -60 104 0 9 16 37 36 63 19 26 38 59 41 74
5 24 8 26 39 21 l35 -6 -17 30 c-23 40 -13 74 33 104 47 31 69 70 77 139 l6
55 -27 -33 c-16 -18 -31 -32 -35 -32 -8 0 11 26 43 60 9 9 21 38 28 63 8 36
66 137 77 137 1 0 -9 -29 -22 -65z m-304 -178 c0 -2 -10 -12 -22 -23 l-23 -19
19 23 c18 21 26 27 26 19z m-70 -81 c0 -2 -8 -10 -17 -17 -16 -13 -17 -12 -4
4 13 16 21 21 21 13z m-53 -113 c-3 -10 -5 -4 -5 12 0 17 2 24 5 18 2 -7 2
-21 0 -30z m-10 -95 c-3 -8 -6 -5 -6 6 -1 11 2 17 5 13 3 -3 4 -12 1 -19z
m124 -55 c-12 -20 -14 -14 -5 12 4 9 9 14 11 11 3 -2 0 -13 -6 -23z m2 -185
c7 -5 8 -8 1 -8 -6 0 -21 11 -33 24 -16 17 -19 25 -9 28 7 3 17 -4 21 -16 4
-11 13 -24 20 -28z m8047 -56 c0 -15 -38 -44 -49 -37 -16 9 -13 35 3 29 8 -3
17 -1 21 5 7 13 25 15 25 3z m-5630 -67 l0 -65 90 0 c73 0 90 -3 90 -15 0 -12
-18 -15 -105 -15 l-105 0 0 80 c0 64 3 80 15 80 12 0 15 -14 15 -65z m170 10
c0 -42 -3 -55 -15 -55 -12 0 -15 13 -15 55 0 42 3 55 15 55 12 0 15 -13 15
-55z m5610 40 c0 -13 -12 -15 -67 -13 -42 2 -68 8 -71 16 -3 9 15 12 67 12 57
0 71 -3 71 -15z m-5690 -46 c0 -36 -4 -49 -12 -47 -14 5 -23 61 -14 84 12 31
26 11 26 -37z m340 21 c0 -5 -9 -10 -20 -10 -17 0 -20 -7 -20 -50 0 -27 -4
-50 -10 -50 -5 0 -10 23 -10 50 0 38 -4 50 -15 50 -8 0 -15 5 -15 10 0 6 20
10 45 10 25 0 45 -4 45 -10z m92 -7 c20 -18 23 -54 8 -84 -7 -13 -21 -19 -45
-19 -52 0 -72 51 -39 98 18 26 50 28 76 5z m113 7 c3 -5 -3 -10 -14 -10 -18 0
-21 -6 -21 -50 0 -27 -4 -50 -10 -50 -5 0 -10 23 -10 50 0 38 -4 50 -15 50 -8
0 -15 5 -15 10 0 6 18 10 39 10 22 0 43 -4 46 -10z m74 -46 c20 -54 20 -88 0
-51 -6 9 -19 17 -29 17 -10 0 -23 -8 -29 -17 -5 -10 -12 -15 -16 -12 -7 8 34
119 44 119 5 0 18 -25 30 -56z m76 -44 c13 0 27 -4 30 -10 4 -6 -10 -10 -34
-10 l-41 0 0 53 c0 70 14 84 18 18 3 -46 5 -51 27 -51z m170 90 c3 -5 -3 -10
-14 -10 -18 0 -21 -6 -21 -50 0 -27 -4 -50 -10 -50 -5 0 -10 23 -10 50 0 44
-3 50 -21 50 -11 0 -17 5 -14 10 3 6 24 10 45 10 21 0 42 -4 45 -10z m35 -50
c0 -33 -4 -60 -10 -60 -6 0 -10 27 -10 60 0 33 4 60 10 60 6 0 10 -27 10 -60z
m105 40 c16 -18 16 -20 2 -20 -10 0 -17 5 -17 11 0 6 -10 9 -22 7 -18 -2 -24
-11 -26 -36 -4 -37 19 -53 50 -33 17 11 19 10 16 -6 -4 -22 -53 -30 -74 -12
-19 15 -18 74 2 93 21 22 47 20 69 -4z m76 -4 c16 15 29 23 29 17 0 -6 -7 -16
-15 -23 -20 -16 -19 -27 5 -57 28 -35 14 -45 -15 -11 -24 28 -35 27 -35 -4 0
-10 -4 -18 -10 -18 -5 0 -10 24 -10 53 0 57 13 87 18 42 l4 -27 29 28z m129
14 c0 -5 -13 -10 -30 -10 -20 0 -30 -5 -30 -15 0 -9 9 -15 24 -15 14 0 28 -4
31 -10 4 -6 -7 -10 -24 -10 -21 0 -31 -5 -31 -15 0 -10 10 -15 30 -15 17 0 30
-4 30 -10 0 -5 -18 -10 -40 -10 l-40 0 0 53 c0 30 3 57 7 60 10 11 73 8 73 -3z
m100 0 c0 -5 -7 -10 -15 -10 -11 0 -15 -12 -15 -50 0 -37 -4 -50 -14 -50 -12
0 -14 12 -11 50 2 44 1 50 -16 50 -10 0 -19 5 -19 10 0 6 20 10 45 10 25 0 45
-4 45 -10z m74 4 c9 -3 16 -12 16 -20 0 -12 -4 -12 -20 -2 -15 10 -22 10 -31
1 -9 -9 -3 -15 25 -27 37 -15 45 -33 24 -54 -15 -15 -64 -16 -73 -1 -10 16 1
22 22 11 19 -10 43 -6 43 8 0 4 -14 13 -30 19 -35 12 -47 35 -30 56 13 16 29
19 54 9z m147 -4 c20 -11 26 -45 9 -55 -7 -4 -6 -13 1 -26 15 -29 0 -39 -18
-11 -19 27 -33 28 -33 2 0 -11 -7 -20 -15 -20 -11 0 -15 13 -15 53 0 30 3 57
7 60 10 10 42 8 64 -3z m107 -47 c22 -58 20 -82 -2 -50 -17 22 -42 22 -55 0
-5 -10 -12 -15 -16 -12 -7 8 34 119 44 119 5 0 18 -26 29 -57z m52 -3 c0 -33
-4 -60 -10 -60 -6 0 -10 27 -10 60 0 33 4 60 10 60 6 0 10 -27 10 -60z m90 45
c7 -9 9 -19 5 -23 -4 -4 -10 -1 -12 6 -7 17 -43 15 -43 -3 0 -8 8 -15 19 -15
24 0 44 -24 39 -47 -2 -13 -12 -18 -37 -18 -19 0 -36 6 -38 12 -3 9 4 11 26 7
41 -8 42 13 1 27 -31 11 -39 36 -18 57 17 17 43 15 58 -3z m105 5 c4 -6 -7
-10 -24 -10 -21 0 -31 -5 -31 -15 0 -9 9 -15 25 -15 14 0 25 -4 25 -10 0 -5
-11 -10 -25 -10 -16 0 -25 -6 -25 -15 0 -9 9 -15 24 -15 14 0 28 -4 31 -10 4
-6 -10 -10 -34 -10 l-41 0 0 60 0 60 34 0 c19 0 38 -4 41 -10z m95 -10 c41
-41 13 -100 -47 -100 l-33 0 0 53 c0 30 3 57 7 60 13 14 54 6 73 -13z m3950
10 c0 -5 -7 -10 -15 -10 -11 0 -15 -12 -15 -50 0 -27 -4 -50 -10 -50 -5 0 -10
23 -10 50 0 44 -3 50 -21 50 -11 0 -17 5 -14 10 3 6 24 10 46 10 21 0 39 -4
39 -10z m93 -2 c9 -7 19 -25 22 -40 9 -34 -33 -82 -62 -71 -33 11 -43 25 -43
56 0 54 45 83 83 55z m117 2 c0 -5 -7 -10 -15 -10 -11 0 -15 -12 -15 -50 0
-27 -4 -50 -10 -50 -5 0 -10 23 -10 50 0 43 -3 50 -20 50 -11 0 -20 5 -20 10
0 6 20 10 45 10 25 0 45 -4 45 -10z m78 -57 c16 -43 17 -53 6 -53 -8 0 -14 7
-14 15 0 9 -9 15 -25 15 -16 0 -25 -6 -25 -15 0 -8 -6 -15 -14 -15 -11 0 -10
10 6 52 32 85 34 85 66 1z m52 11 c0 -40 2 -44 25 -44 14 0 25 -4 25 -10 0 -5
-16 -10 -35 -10 l-35 0 0 61 c0 37 4 58 10 54 6 -3 10 -26 10 -51z m190 46 c0
-5 -7 -10 -15 -10 -11 0 -15 -12 -15 -50 0 -27 -4 -50 -10 -50 -11 0 -13 9
-10 63 1 31 -2 37 -19 37 -12 0 -21 5 -21 10 0 6 20 10 45 10 25 0 45 -4 45
-10z m40 -56 c0 -41 -4 -54 -15 -54 -11 0 -15 13 -15 53 0 30 3 57 6 60 15 15
24 -8 24 -59z m96 52 c25 -19 12 -31 -15 -14 -29 18 -56 -9 -47 -46 7 -28 42
-36 64 -14 7 7 12 8 12 2 0 -35 -72 -47 -90 -15 -15 29 -12 62 7 83 19 22 42
23 69 4z m54 -17 c0 -18 3 -17 24 8 13 15 28 25 32 20 4 -4 -2 -17 -14 -29
l-21 -22 25 -33 c31 -40 10 -45 -23 -5 l-22 27 -1 -27 c0 -16 -4 -28 -10 -28
-6 0 -10 27 -10 61 0 37 4 58 10 54 6 -3 10 -15 10 -26z m150 21 c0 -5 -11
-10 -25 -10 -16 0 -25 -6 -25 -15 0 -9 9 -15 25 -15 14 0 25 -4 25 -10 0 -5
-11 -10 -25 -10 -16 0 -25 -6 -25 -15 0 -9 9 -15 25 -15 14 0 25 -4 25 -10 0
-5 -16 -10 -35 -10 l-35 0 0 60 0 60 35 0 c19 0 35 -4 35 -10z m105 0 c3 -5
-3 -10 -14 -10 -18 0 -21 -6 -21 -50 0 -27 -4 -50 -10 -50 -5 0 -10 23 -10 50
0 44 -3 50 -21 50 -11 0 -17 5 -14 10 3 6 24 10 45 10 21 0 42 -4 45 -10z m85
-5 c16 -19 5 -34 -12 -17 -16 16 -38 15 -38 -1 0 -7 14 -18 31 -24 24 -9 30
-17 27 -35 -4 -29 -57 -38 -78 -13 -12 15 -10 16 23 10 46 -9 51 11 7 26 -22
8 -30 17 -30 34 0 35 47 48 70 20z m139 1 c7 -8 11 -20 10 -28 -1 -7 1 -21 6
-31 11 -26 -12 -47 -51 -47 l-34 0 0 60 c0 59 0 60 29 60 16 0 34 -6 40 -14z
m54 -8 l16 -23 20 25 c27 34 38 18 12 -18 -12 -17 -21 -42 -21 -56 0 -14 -4
-26 -10 -26 -5 0 -10 12 -10 28 0 15 -9 38 -20 52 -11 14 -20 28 -20 33 0 15
18 6 33 -15z m181 16 c9 -3 16 -12 16 -20 0 -12 -4 -12 -20 -2 -15 10 -22 10
-32 0 -9 -9 -5 -14 19 -23 36 -12 49 -35 32 -56 -15 -17 -71 -13 -77 6 -3 10
0 12 14 7 30 -12 36 -12 41 1 3 7 -7 17 -21 23 -32 12 -43 35 -26 55 13 16 29
19 54 9z m121 -4 c3 -5 -3 -10 -14 -10 -18 0 -21 -6 -21 -50 0 -27 -4 -50 -10
-50 -5 0 -10 23 -10 50 0 44 -3 50 -21 50 -11 0 -17 5 -14 10 3 6 24 10 45 10
21 0 42 -4 45 -10z m73 -47 c22 -58 20 -82 -2 -50 -17 22 -42 22 -55 0 -5 -10
-12 -15 -16 -12 -7 8 34 119 44 119 5 0 18 -26 29 -57z m102 47 c0 -5 -7 -10
-15 -10 -11 0 -15 -12 -15 -50 0 -27 -4 -50 -10 -50 -5 0 -10 23 -10 50 0 43
-3 50 -20 50 -11 0 -20 5 -20 10 0 6 20 10 45 10 25 0 45 -4 45 -10z m40 -46
c0 -40 2 -44 25 -44 23 0 25 4 25 44 0 25 5 48 10 51 6 4 10 -13 10 -43 0 -57
-15 -75 -57 -70 -27 3 -28 6 -31 61 -2 39 0 57 7 52 6 -3 11 -26 11 -51z m154
50 c9 -3 16 -12 16 -20 0 -12 -4 -12 -20 -2 -15 10 -22 10 -31 1 -10 -10 -7
-14 12 -22 31 -11 53 -37 44 -51 -11 -18 -49 -28 -67 -18 -29 14 -21 28 12 22
37 -8 41 12 5 26 -31 12 -41 35 -25 55 13 16 29 19 54 9z m-7814 -40 c0 -45
-24 -42 -28 4 -2 24 1 32 12 32 12 0 16 -10 16 -36z m5485 -15 c-14 -14 -21
-16 -32 -8 -19 17 -16 24 15 35 33 12 40 0 17 -27z m160 11 c0 -11 -15 -16
-59 -18 -59 -3 -84 7 -71 28 11 18 130 9 130 -10z m-5725 -11 c0 -24 -23 -21
-28 4 -2 10 3 17 12 17 10 0 16 -9 16 -21z m5558 -56 c-2 -10 -10 -18 -18 -18
-8 0 -16 8 -18 18 -2 12 3 17 18 17 15 0 20 -5 18 -17z m172 2 c0 -12 -14 -15
-70 -15 -64 0 -81 6 -63 23 3 4 35 7 70 7 49 0 63 -3 63 -15z m-860 -2835 l0
-2650 -2650 0 -2650 0 0 2650 0 2650 2650 0 2650 0 0 -2650z m5590 0 l0 -2650
-2417 0 -2418 0 3 114 c3 94 0 116 -13 130 -14 14 -46 16 -231 16 l-214 0 0
2520 0 2520 2645 0 2645 0 0 -2650z m-13732 1850 l0 -60 -88 0 -88 0 0 60 0
60 88 0 88 0 0 -60z m307 -5 c0 -34 -4 -45 -15 -45 -12 0 -15 9 -12 40 4 42 3
44 -22 34 -10 -4 -16 -18 -16 -40 0 -19 -4 -34 -10 -34 -5 0 -10 14 -10 31 0
19 -7 37 -17 45 -16 12 -10 13 42 14 l60 0 0 -45z m91 34 c3 -6 -1 -10 -12 -9
-39 4 -45 0 -42 -27 3 -24 7 -28 31 -26 15 1 25 -2 22 -8 -9 -13 -49 -11 -63
3 -15 15 -15 51 0 66 15 15 55 16 64 1z m34 -6 c0 -15 1 -15 18 0 26 24 39 21
17 -3 -17 -18 -17 -21 -1 -45 19 -29 11 -33 -16 -8 -17 15 -18 15 -18 0 0 -10
-4 -17 -10 -17 -5 0 -10 20 -10 45 0 25 5 45 10 45 6 0 10 -7 10 -17z m277 5
c4 -7 -2 -9 -15 -6 -32 9 -38 -10 -7 -22 37 -14 30 -44 -13 -48 -18 -2 -32 1
-32 8 0 6 10 8 25 4 16 -4 25 -2 25 5 0 6 -11 16 -25 21 -14 5 -25 16 -25 24
0 10 -6 13 -15 10 -9 -4 -15 -19 -15 -40 0 -19 -4 -34 -10 -34 -5 0 -10 15
-10 34 0 37 -17 47 -60 35 -23 -6 -23 -7 -3 -8 31 -1 39 -21 9 -21 -35 0 -34
-27 2 -33 22 -3 20 -4 -10 -6 l-38 -1 0 45 0 45 105 -1 c62 0 108 -5 112 -11z
m-799 -346 c2 -12 12 -22 25 -24 12 -2 22 -10 22 -18 0 -8 -10 -16 -22 -18
-14 -2 -23 -11 -25 -25 -2 -12 -10 -22 -18 -22 -8 0 -16 10 -18 22 -2 14 -11
23 -25 25 -29 4 -28 32 1 36 13 2 22 10 22 21 0 37 33 40 38 3z m399 -19 c3
-8 1 -19 -6 -26 -8 -8 -6 -15 6 -29 9 -10 11 -18 6 -18 -6 0 -16 7 -23 15 -7
8 -16 15 -21 15 -5 0 -9 -7 -9 -15 0 -8 -4 -15 -10 -15 -5 0 -10 15 -10 34 0
26 -5 35 -22 40 -30 8 -51 -19 -37 -46 7 -13 16 -17 30 -13 11 4 19 2 19 -4 0
-18 -57 -13 -64 5 -9 24 -7 49 5 61 17 17 129 14 136 -4z m83 7 c0 -5 -9 -10
-20 -10 -11 0 -20 -4 -20 -9 0 -5 9 -7 20 -4 11 3 20 0 20 -6 0 -6 -9 -11 -20
-11 -11 0 -20 -7 -20 -15 0 -9 9 -15 25 -15 20 0 26 7 36 40 16 52 33 51 52
-5 16 -45 12 -56 -11 -33 -10 10 -17 10 -32 0 -11 -6 -36 -12 -55 -12 -35 0
-35 0 -35 45 0 43 1 45 30 45 17 0 30 -4 30 -10z m160 0 c0 -5 -7 -10 -15 -10
-10 0 -16 -12 -17 -37 l-1 -38 -4 38 c-3 23 -9 37 -18 37 -8 0 -17 5 -20 10
-4 6 10 10 34 10 23 0 41 -4 41 -10z m70 0 c0 -5 -10 -11 -22 -11 l-23 -2 23
-4 c27 -5 29 -23 2 -23 -27 0 -25 -28 3 -33 16 -3 13 -5 -10 -6 -33 -1 -33 0
-33 44 0 43 1 45 30 45 17 0 30 -4 30 -10z m165 -35 c0 -34 -4 -45 -15 -45
-12 0 -15 9 -12 42 4 35 2 40 -13 35 -9 -4 -21 -7 -26 -7 -5 0 -10 -17 -11
-37 l-1 -38 -4 38 c-3 24 -9 37 -19 37 -8 0 -14 5 -14 10 0 6 26 10 58 10 l57
0 0 -45z m90 34 c4 -6 -4 -9 -22 -7 -25 3 -28 0 -28 -27 0 -27 3 -30 28 -28
15 1 25 -2 22 -8 -9 -13 -49 -11 -63 3 -15 15 -15 51 0 66 15 15 55 16 63 1z
m49 -10 c11 12 24 21 29 21 6 0 1 -10 -11 -23 l-22 -23 22 -22 c13 -12 17 -22
11 -22 -6 0 -16 7 -23 15 -16 20 -27 19 -33 -2 -3 -10 -5 5 -5 32 0 33 2 42 7
27 l6 -24 19 21z m186 11 c0 -5 -7 -10 -15 -10 -10 0 -15 -11 -15 -35 0 -19
-4 -35 -10 -35 -5 0 -10 15 -10 34 0 37 -12 46 -50 35 -24 -7 -24 -7 -2 -8 27
-1 30 -21 2 -21 -27 0 -25 -28 3 -33 16 -3 13 -5 -10 -6 -33 -1 -33 0 -33 44
l0 45 70 0 c40 0 70 -4 70 -10z m1445 -20 c10 11 22 17 27 14 5 -4 -3 -19 -18
-35 l-28 -29 -28 26 c-15 15 -25 31 -22 36 4 5 16 0 28 -11 23 -21 23 -21 41
-1z m-2715 -360 l0 -50 70 0 c40 0 70 -4 70 -10 0 -6 -33 -10 -80 -10 l-80 0
0 60 c0 33 4 60 10 60 6 0 10 -22 10 -50z m130 10 c0 -22 -4 -40 -10 -40 -5 0
-10 18 -10 40 0 22 5 40 10 40 6 0 10 -18 10 -40z m-60 -5 c0 -19 -4 -35 -10
-35 -5 0 -10 16 -10 35 0 19 5 35 10 35 6 0 10 -16 10 -35z m408 11 c-11 -8
-18 -26 -18 -45 0 -17 -4 -31 -10 -31 -5 0 -10 16 -10 35 0 19 -3 35 -7 36
-69 7 -94 -4 -48 -21 37 -14 30 -44 -13 -48 -18 -2 -32 1 -32 8 0 6 10 8 25 4
16 -4 25 -2 25 5 0 6 -11 16 -25 21 -23 9 -33 29 -19 42 3 4 38 6 77 7 62 0
69 -2 55 -13z m76 -27 c9 -23 14 -44 10 -48 -4 -3 -9 0 -11 7 -5 14 -43 16
-43 2 0 -5 -5 -10 -11 -10 -6 0 -8 9 -3 23 25 81 35 85 58 26z m131 -4 c0 -34
-4 -45 -15 -45 -12 0 -15 9 -12 40 4 42 3 44 -22 34 -10 -4 -16 -18 -16 -40 0
-19 -4 -34 -10 -34 -5 0 -10 16 -10 35 0 24 -5 35 -15 35 -8 0 -15 5 -15 10 0
6 26 10 58 10 l57 0 0 -45z m165 35 c0 -5 -7 -10 -15 -10 -10 0 -15 -11 -15
-35 0 -19 -4 -35 -10 -35 -5 0 -10 16 -10 35 0 19 -3 35 -7 36 -69 7 -94 -4
-48 -21 37 -14 30 -44 -13 -48 -18 -2 -32 1 -32 8 0 6 10 8 25 4 16 -4 25 -2
25 5 0 6 -11 16 -25 21 -24 9 -32 29 -18 43 10 11 143 8 143 -3z m40 -24 c-5
-22 -3 -39 3 -45 8 -8 5 -11 -8 -11 -17 0 -20 7 -20 45 0 35 4 45 16 45 14 0
16 -6 9 -34z m90 24 c0 -5 -9 -9 -21 -7 -29 3 -47 -26 -30 -47 8 -10 21 -14
32 -11 11 4 19 2 19 -5 0 -7 -13 -10 -32 -8 -29 3 -33 7 -36 37 -2 20 2 37 10
42 18 12 58 11 58 -1z m80 -1 c0 -6 -9 -9 -20 -6 -31 8 -35 -12 -5 -23 37 -14
30 -44 -13 -48 -18 -2 -32 1 -32 8 0 6 10 8 25 4 16 -4 25 -2 25 5 0 6 -11 16
-25 21 -24 9 -32 29 -18 43 11 11 63 8 63 -4z m-960 -24 c0 -14 -4 -25 -10
-25 -5 0 -10 11 -10 25 0 14 5 25 10 25 6 0 10 -11 10 -25z m-60 -10 c0 -8 -4
-15 -10 -15 -5 0 -10 7 -10 15 0 8 5 15 10 15 6 0 10 -7 10 -15z m120 -355 l0
-60 -90 0 -90 0 0 54 c0 34 5 56 13 59 6 3 47 6 90 6 l77 1 0 -60z m264 5 c9
-45 2 -55 -35 -55 -28 0 -29 2 -29 45 0 43 1 45 29 45 25 0 30 -5 35 -35z m36
-4 c0 -33 4 -40 23 -44 16 -3 13 -5 -10 -6 -33 -1 -33 0 -33 44 0 25 5 45 10
45 6 0 10 -18 10 -39z m118 27 c7 -7 12 -22 12 -34 0 -51 -72 -61 -78 -11 -2
16 -1 35 2 43 7 17 48 18 64 2z m102 1 c0 -6 -7 -9 -15 -5 -25 9 -45 -5 -45
-30 0 -28 25 -43 43 -25 8 8 8 11 -1 11 -7 0 -12 5 -12 10 0 6 7 10 15 10 9 0
15 -9 15 -25 0 -21 -5 -25 -28 -25 -15 0 -33 5 -40 12 -15 15 -15 51 0 66 15
15 68 16 68 1z m-586 -320 c58 -27 55 -115 -5 -139 -63 -26 -125 36 -100 99
19 44 60 60 105 40z m266 -44 c0 -21 38 -19 43 3 3 9 5 -5 4 -33 0 -27 -2 -40
-4 -27 -6 29 -43 31 -43 2 0 -11 -4 -20 -10 -20 -5 0 -10 20 -10 45 0 25 5 45
10 45 6 0 10 -7 10 -15z m130 5 c0 -5 -10 -11 -22 -11 l-23 -2 23 -4 c27 -5
29 -23 2 -23 -27 0 -25 -28 3 -33 16 -3 13 -5 -10 -6 -33 -1 -33 0 -33 44 0
43 1 45 30 45 17 0 30 -4 30 -10z m35 -22 c1 -13 3 -29 4 -35 0 -7 10 -13 21
-13 17 0 20 7 20 40 0 35 3 40 24 40 33 0 53 -25 36 -45 -7 -8 -19 -15 -26
-15 -8 0 -14 -7 -14 -15 0 -11 -11 -15 -40 -15 l-40 0 0 47 c0 46 11 54 15 11z
m-452 -400 c-30 -31 -43 -35 -43 -14 0 8 -10 16 -22 18 -15 2 -24 11 -26 26
-3 18 1 22 22 22 20 0 26 5 26 22 0 20 3 19 35 -12 l35 -34 -27 -28z m62 32
c0 -53 -1 -55 -27 -58 -16 -2 -28 1 -28 7 0 6 9 11 20 11 17 0 20 7 20 40 0
33 -3 40 -20 40 -11 0 -20 5 -20 11 0 6 12 9 28 7 26 -3 27 -5 27 -58z m225 1
c0 -33 4 -40 23 -44 16 -3 13 -5 -10 -6 -33 -1 -33 0 -33 44 0 25 5 45 10 45
6 0 10 -18 10 -39z m118 27 c7 -7 12 -21 12 -33 0 -47 -62 -63 -81 -21 -22 47
33 90 69 54z m102 1 c0 -5 -8 -9 -17 -8 -36 3 -43 -1 -43 -26 0 -25 24 -44 38
-30 4 4 1 10 -5 12 -20 7 -15 23 7 23 15 0 20 -7 20 -25 0 -21 -5 -25 -28 -25
-15 0 -33 5 -40 12 -15 15 -15 51 0 66 15 15 68 16 68 1z m85 -34 c0 -37 -3
-45 -18 -45 -12 0 -16 4 -10 13 13 21 14 49 2 63 -9 11 -7 14 7 14 16 0 19 -8
19 -45z m59 18 l15 -28 1 28 c0 15 5 27 10 27 6 0 10 -20 10 -45 0 -53 -13
-57 -37 -12 l-17 32 -7 -35 c-6 -33 -6 -33 -8 13 -1 53 11 60 33 20z m7860
-2539 c26 -10 18 -25 -9 -18 -33 8 -32 -9 1 -24 37 -18 30 -57 -10 -57 -16 0
-31 6 -34 13 -3 9 3 11 22 6 34 -8 35 13 1 26 -37 14 -32 55 7 59 3 1 13 -2
22 -5z m56 -44 c5 0 12 5 15 10 11 18 45 10 55 -12 l9 -23 7 23 c6 20 24 32
24 15 0 -25 -35 -93 -48 -93 -12 0 -13 3 -5 11 8 8 8 20 1 43 -14 41 -15 41
-33 26 -14 -12 -14 -15 1 -31 10 -11 14 -22 10 -26 -4 -5 -12 0 -17 10 -13 22
-26 22 -32 0 -3 -10 -5 9 -4 42 0 33 2 48 4 33 2 -16 8 -28 13 -28z m190 3
c10 -17 10 -17 20 0 25 40 76 5 59 -40 -10 -27 -44 -30 -59 -5 -10 16 -10 16
-20 0 -6 -10 -20 -18 -30 -18 -11 0 -20 -4 -20 -10 0 -5 -4 -10 -10 -10 -5 0
-10 23 -10 50 0 49 1 50 30 50 17 0 33 -7 40 -17z"/>
<path d="M1486 6257 c-38 -28 -13 -97 34 -97 23 0 50 32 50 58 0 20 -34 52
-55 52 -6 0 -19 -6 -29 -13z m54 -13 c0 -2 -9 -4 -21 -4 -11 0 -18 4 -14 10 5
8 35 3 35 -6z"/>
<path d="M3980 5700 c-6 -12 -8 -30 -5 -41 10 -29 59 -22 63 9 7 46 -38 70
-58 32z"/>
<path d="M4190 5680 c0 -5 5 -10 10 -10 6 0 10 5 10 10 0 6 -4 10 -10 10 -5 0
-10 -4 -10 -10z"/>
<path d="M5100 5700 c0 -15 5 -20 18 -18 9 2 17 10 17 18 0 8 -8 16 -17 18
-13 2 -18 -3 -18 -18z"/>
<path d="M5210 5686 c0 -9 5 -16 10 -16 6 0 10 4 10 9 0 6 -4 13 -10 16 -5 3
-10 -1 -10 -9z"/>
<path d="M5530 5680 c0 -36 3 -40 24 -40 16 0 27 7 31 20 8 26 -11 60 -35 60
-17 0 -20 -7 -20 -40z"/>
<path d="M9574 5706 c-13 -33 0 -61 29 -64 27 -3 28 -2 25 35 -2 31 -7 39 -26
41 -13 2 -24 -3 -28 -12z"/>
<path d="M9786 5685 c-3 -9 0 -15 9 -15 9 0 12 6 9 15 -4 8 -7 15 -9 15 -2 0
-5 -7 -9 -15z"/>
<path d="M10690 5705 c0 -8 9 -15 20 -15 11 0 20 7 20 15 0 8 -9 15 -20 15
-11 0 -20 -7 -20 -15z"/>
<path d="M10690 5656 c0 -11 9 -16 26 -16 31 0 28 23 -4 28 -15 2 -22 -2 -22
-12z"/>
<path d="M11130 5686 c0 -9 5 -16 10 -16 6 0 10 4 10 9 0 6 -4 13 -10 16 -5 3
-10 -1 -10 -9z"/>
<path d="M4670 5080 l0 -60 200 0 200 0 0 60 0 60 -200 0 -200 0 0 -60z"/>
<path d="M5500 5080 l0 -60 205 0 205 0 0 60 0 60 -205 0 -205 0 0 -60z"/>
<path d="M5141 5083 c-1 -39 1 -43 23 -43 14 0 27 4 30 9 3 4 -6 6 -19 3 -19
-3 -25 0 -25 13 0 13 6 16 23 13 19 -4 23 0 24 21 0 15 -1 18 -4 9 -2 -10 -13
-18 -23 -18 -10 0 -21 8 -23 18 -3 9 -5 -2 -6 -25z"/>
<path d="M6470 5108 c0 -9 -6 -19 -12 -21 -10 -4 -10 -6 0 -6 14 -1 28 26 18
36 -3 4 -6 -1 -6 -9z"/>
<path d="M5223 5076 c1 -17 9 -31 17 -33 10 -3 11 -2 4 4 -7 4 -14 19 -17 33
-4 22 -5 21 -4 -4z"/>
<path d="M5262 5070 c0 -19 2 -27 5 -17 2 9 2 25 0 35 -3 9 -5 1 -5 -18z"/>
<path d="M5327 5081 c7 -27 -17 -38 -34 -16 -7 11 -13 14 -13 8 0 -15 22 -30
43 -30 12 0 17 8 17 29 0 15 -4 28 -9 28 -5 0 -7 -8 -4 -19z"/>
<path d="M5355 5091 c-6 -11 13 -26 22 -17 4 3 1 6 -6 6 -7 0 -9 5 -6 10 3 6
4 10 1 10 -3 0 -7 -4 -11 -9z"/>
<path d="M6047 5093 c-4 -3 -7 -13 -7 -21 0 -18 13 -7 16 13 2 17 1 18 -9 8z"/>
<path d="M6076 5085 c-3 -8 -1 -15 4 -15 6 0 10 7 10 15 0 8 -2 15 -4 15 -2 0
-6 -7 -10 -15z"/>
<path d="M6213 5076 c1 -17 9 -31 17 -33 10 -3 11 -2 4 4 -7 4 -14 19 -17 33
-4 22 -5 21 -4 -4z"/>
<path d="M6252 5070 c0 -19 2 -27 5 -17 2 9 2 25 0 35 -3 9 -5 1 -5 -18z"/>
<path d="M6595 5090 c3 -5 8 -10 11 -10 2 0 4 5 4 10 0 6 -5 10 -11 10 -5 0
-7 -4 -4 -10z"/>
<path d="M6633 5076 c1 -17 9 -31 17 -33 10 -3 11 -2 4 4 -7 4 -14 19 -17 33
-4 22 -5 21 -4 -4z"/>
<path d="M6672 5070 c0 -19 2 -27 5 -17 2 9 2 25 0 35 -3 9 -5 1 -5 -18z"/>
<path d="M6760 5091 c0 -10 19 -25 25 -20 1 2 -3 10 -11 17 -8 7 -14 8 -14 3z"/>
<path d="M6860 5091 c0 -10 19 -25 25 -20 1 2 -3 10 -11 17 -8 7 -14 8 -14 3z"/>
<path d="M5988 5083 c6 -2 18 -2 25 0 6 3 1 5 -13 5 -14 0 -19 -2 -12 -5z"/>
<path d="M6310 5069 c0 -5 5 -7 10 -4 6 3 10 8 10 11 0 2 -4 4 -10 4 -5 0 -10
-5 -10 -11z"/>
<path d="M6490 5069 c0 -5 5 -7 10 -4 6 3 10 8 10 11 0 2 -4 4 -10 4 -5 0 -10
-5 -10 -11z"/>
<path d="M6713 5073 c9 -2 23 -2 30 0 6 3 -1 5 -18 5 -16 0 -22 -2 -12 -5z"/>
<path d="M5390 5061 c0 -8 -8 -11 -20 -8 -11 3 -18 1 -14 -4 3 -5 11 -9 19 -9
16 0 30 18 21 27 -3 4 -6 1 -6 -6z"/>
<path d="M6471 5054 c0 -11 3 -14 6 -6 3 7 2 16 -1 19 -3 4 -6 -2 -5 -13z"/>
<path d="M6800 5061 c0 -8 -8 -11 -20 -8 -11 3 -18 1 -14 -4 3 -5 11 -9 19 -9
16 0 30 18 21 27 -3 4 -6 1 -6 -6z"/>
<path d="M6520 5050 c-13 -8 -12 -10 3 -10 9 0 17 5 17 10 0 12 -1 12 -20 0z"/>
<path d="M6567 5048 c2 -5 13 -8 24 -8 10 0 19 3 19 8 0 4 -11 7 -24 7 -13 0
-22 -3 -19 -7z"/>
<path d="M6725 5050 c-16 -7 -17 -9 -3 -9 9 -1 20 4 23 9 7 11 7 11 -20 0z"/>
<path d="M6867 5048 c2 -5 10 -8 18 -8 8 0 16 3 18 8 3 4 -5 7 -18 7 -13 0
-21 -3 -18 -7z"/>
<path d="M6068 5043 c7 -3 16 -2 19 1 4 3 -2 6 -13 5 -11 0 -14 -3 -6 -6z"/>
<path d="M6118 5043 c7 -3 16 -2 19 1 4 3 -2 6 -13 5 -11 0 -14 -3 -6 -6z"/>
<path d="M6338 5043 c7 -3 16 -2 19 1 4 3 -2 6 -13 5 -11 0 -14 -3 -6 -6z"/>
<path d="M5650 4913 c-559 -39 -1050 -255 -1448 -637 -363 -348 -600 -811
-679 -1331 -20 -133 -23 -468 -4 -595 66 -459 231 -841 506 -1175 363 -440
867 -723 1450 -812 135 -21 460 -23 590 -5 362 52 657 157 948 340 852 535
1251 1580 977 2554 -79 281 -232 580 -411 803 -348 434 -843 729 -1384 825
-174 31 -391 44 -545 33z m395 -1173 c315 -78 563 -259 721 -527 192 -324 215
-696 65 -1042 -22 -50 -61 -124 -87 -164 -64 -96 -218 -254 -307 -313 -418
-281 -949 -266 -1344 38 -72 55 -191 182 -243 257 -82 122 -149 282 -181 436
-17 79 -17 333 0 410 75 341 258 601 544 775 116 70 288 130 429 150 104 15
301 4 403 -20z"/>
<path d="M10270 5080 l0 -60 200 0 200 0 0 60 0 60 -200 0 -200 0 0 -60z"/>
<path d="M11110 5080 l0 -60 200 0 200 0 0 60 0 60 -200 0 -200 0 0 -60z"/>
<path d="M10741 5083 c-1 -39 1 -43 23 -43 14 0 27 4 30 9 3 4 -6 6 -19 3 -19
-3 -25 0 -25 13 0 13 6 16 23 13 19 -4 23 0 24 21 0 15 -1 18 -4 9 -2 -10 -13
-18 -23 -18 -10 0 -21 8 -23 18 -3 9 -5 -2 -6 -25z"/>
<path d="M12062 5094 c-7 -8 -8 -14 -3 -14 10 0 25 19 20 25 -2 1 -10 -3 -17
-11z"/>
<path d="M10823 5076 c1 -17 9 -31 17 -33 10 -3 11 -2 4 4 -7 4 -14 19 -17 33
-4 22 -5 21 -4 -4z"/>
<path d="M10862 5070 c0 -19 2 -27 5 -17 2 9 2 25 0 35 -3 9 -5 1 -5 -18z"/>
<path d="M10927 5081 c7 -27 -17 -38 -34 -16 -7 11 -13 14 -13 8 0 -15 22 -30
43 -30 12 0 17 8 17 29 0 15 -4 28 -9 28 -5 0 -7 -8 -4 -19z"/>
<path d="M10955 5091 c-6 -11 13 -26 22 -17 4 3 1 6 -6 6 -7 0 -9 5 -6 10 3 6
4 10 1 10 -3 0 -7 -4 -11 -9z"/>
<path d="M11643 5085 c-7 -21 -3 -23 27 -14 25 7 25 7 2 8 -13 1 -20 6 -17 11
3 6 4 10 0 10 -3 0 -8 -7 -12 -15z"/>
<path d="M11813 5076 c1 -17 9 -31 17 -33 10 -3 11 -2 4 4 -7 4 -14 19 -17 33
-4 22 -5 21 -4 -4z"/>
<path d="M11852 5070 c0 -19 2 -27 5 -17 2 9 2 25 0 35 -3 9 -5 1 -5 -18z"/>
<path d="M12195 5090 c3 -5 8 -10 11 -10 2 0 4 5 4 10 0 6 -5 10 -11 10 -5 0
-7 -4 -4 -10z"/>
<path d="M12234 5070 c1 -18 7 -26 24 -28 19 -3 22 1 21 30 -2 30 -2 31 -6 6
-5 -34 -30 -37 -36 -5 -3 19 -4 19 -3 -3z"/>
<path d="M12334 5092 c3 -5 0 -13 -6 -15 -8 -3 -6 -6 5 -6 19 -1 23 14 5 25
-6 4 -8 3 -4 -4z"/>
<path d="M12360 5091 c0 -10 19 -25 25 -20 1 2 -3 10 -11 17 -8 7 -14 8 -14 3z"/>
<path d="M12460 5091 c0 -10 19 -25 25 -20 1 2 -3 10 -11 17 -8 7 -14 8 -14 3z"/>
<path d="M11588 5083 c6 -2 18 -2 25 0 6 3 1 5 -13 5 -14 0 -19 -2 -12 -5z"/>
<path d="M11910 5071 c0 -4 11 -6 25 -3 14 2 25 6 25 8 0 2 -11 4 -25 4 -14 0
-25 -4 -25 -9z"/>
<path d="M12090 5071 c0 -4 11 -6 25 -3 14 2 25 6 25 8 0 2 -11 4 -25 4 -14 0
-25 -4 -25 -9z"/>
<path d="M10990 5061 c0 -8 -8 -11 -20 -8 -11 3 -18 1 -14 -4 3 -5 11 -9 19
-9 16 0 30 18 21 27 -3 4 -6 1 -6 -6z"/>
<path d="M12071 5054 c0 -11 3 -14 6 -6 3 7 2 16 -1 19 -3 4 -6 -2 -5 -13z"/>
<path d="M12400 5061 c0 -8 -8 -11 -20 -8 -11 3 -18 1 -14 -4 3 -5 11 -9 19
-9 16 0 30 18 21 27 -3 4 -6 1 -6 -6z"/>
<path d="M11665 5050 c-19 -8 -19 -9 3 -9 12 -1 22 4 22 9 0 6 -1 10 -2 9 -2
0 -12 -4 -23 -9z"/>
<path d="M12167 5048 c2 -5 13 -8 24 -8 10 0 19 3 19 8 0 4 -11 7 -24 7 -13 0
-22 -3 -19 -7z"/>
<path d="M12325 5050 c-16 -7 -17 -9 -3 -9 9 -1 20 4 23 9 7 11 7 11 -20 0z"/>
<path d="M12468 5048 c5 -5 16 -8 23 -6 8 3 3 7 -10 11 -17 4 -21 3 -13 -5z"/>
<path d="M11718 5043 c7 -3 16 -2 19 1 4 3 -2 6 -13 5 -11 0 -14 -3 -6 -6z"/>
<path d="M9050 4904 c0 -12 -6 -15 -21 -11 -16 4 -19 3 -11 -5 14 -14 42 -3
42 17 0 8 -2 15 -5 15 -3 0 -5 -7 -5 -16z"/>
<path d="M9970 2780 l0 -2140 280 0 280 0 0 2140 0 2140 -280 0 -280 0 0
-2140z"/>
<path d="M9012 4230 c0 -14 2 -19 5 -12 2 6 2 18 0 25 -3 6 -5 1 -5 -13z"/>
<path d="M9048 4198 c4 -18 2 -20 -18 -15 -16 4 -20 3 -12 -5 6 -6 18 -8 26
-5 17 7 21 32 7 41 -5 4 -7 -4 -3 -16z"/>
<path d="M9038 3533 c-2 -5 -1 -24 3 -43 l6 -35 2 43 c1 39 -3 52 -11 35z"/>
<path d="M9016 2821 c-4 -5 3 -7 14 -4 23 6 26 13 6 13 -8 0 -17 -4 -20 -9z"/>
<path d="M9043 2778 c1 -15 6 -23 11 -18 4 4 4 16 -2 26 -9 16 -10 14 -9 -8z"/>
<path d="M9352 1713 l3 -1068 278 -3 277 -2 0 1070 0 1070 -280 0 -280 0 2
-1067z"/>
<path d="M9044 2102 c4 -7 2 -21 -5 -30 -12 -15 -11 -15 6 0 16 15 17 20 6 30
-11 11 -13 10 -7 0z"/>
<path d="M12450 1355 l0 -715 275 0 275 0 2 363 c2 199 2 521 0 715 l-2 352
-275 0 -275 0 0 -715z"/>
<path d="M9010 2039 c0 -5 11 -9 25 -9 14 0 25 2 25 4 0 2 -11 6 -25 8 -14 3
-25 1 -25 -3z"/>
<path d="M9022 1391 c-11 -7 -11 -9 2 -14 10 -4 16 -1 16 8 0 17 -1 17 -18 6z"/>
<path d="M9032 1340 c0 -14 2 -19 5 -12 2 6 2 18 0 25 -3 6 -5 1 -5 -13z"/>
<path d="M11178 1352 l-278 -2 0 -355 0 -355 275 0 c212 0 277 3 280 13 3 6 4
167 3 357 l-3 345 -277 -3z"/>
<path d="M11520 1000 l0 -360 280 0 280 0 -2 358 -3 357 -277 3 -278 2 0 -360z"/>
<path d="M13070 1000 l0 -360 275 0 275 0 0 360 0 360 -275 0 -275 0 0 -360z"/>
<path d="M9016 681 c-4 -5 3 -7 15 -4 20 5 21 3 17 -30 -2 -21 0 -33 5 -28 14
14 4 66 -15 69 -9 2 -19 -1 -22 -7z"/>
<path d="M9662 478 l1 -43 4 39 c4 34 7 38 29 33 13 -2 24 0 24 4 0 5 -13 9
-30 9 -29 0 -30 -2 -28 -42z"/>
<path d="M9765 509 c-4 -6 -5 -12 -2 -15 2 -3 7 2 10 11 7 17 1 20 -8 4z"/>
<path d="M9832 508 c-7 -7 -11 -21 -11 -32 1 -21 1 -21 6 -1 3 11 10 26 15 33
13 15 6 16 -10 0z"/>
<path d="M9860 516 c0 -2 7 -7 16 -10 8 -3 12 -2 9 4 -6 10 -25 14 -25 6z"/>
<path d="M9912 480 c-1 -40 0 -42 9 -20 l10 25 21 -25 20 -25 -15 26 c-14 24
-14 28 1 45 9 10 5 8 -10 -5 l-26 -23 -5 24 c-2 12 -5 3 -5 -22z"/>
<path d="M9993 480 c0 -25 2 -35 4 -22 2 12 2 32 0 45 -2 12 -4 2 -4 -23z"/>
<path d="M10065 510 c-3 -6 1 -7 9 -4 18 7 21 14 7 14 -6 0 -13 -4 -16 -10z"/>
<path d="M10155 509 c-11 -16 -1 -19 13 -3 7 8 8 14 3 14 -5 0 -13 -5 -16 -11z"/>
<path d="M11103 480 c0 -25 2 -35 4 -22 2 12 2 32 0 45 -2 12 -4 2 -4 -23z"/>
<path d="M11130 510 c0 -5 5 -10 11 -10 5 0 7 5 4 10 -3 6 -8 10 -11 10 -2 0
-4 -4 -4 -10z"/>
<path d="M11251 478 c1 -24 3 -35 6 -26 2 9 14 18 26 20 34 5 29 42 -5 46 -27
3 -28 2 -27 -40z m49 17 c0 -8 -9 -15 -20 -15 -11 0 -20 7 -20 15 0 8 9 15 20
15 11 0 20 -7 20 -15z"/>
<path d="M11358 513 c25 -5 28 -13 10 -31 -8 -8 -9 -12 -1 -12 6 0 13 -8 16
-17 2 -10 4 0 3 22 -2 35 -5 40 -26 41 -22 1 -23 0 -2 -3z"/>
<path d="M11415 509 c-11 -16 -1 -19 13 -3 7 8 8 14 3 14 -5 0 -13 -5 -16 -11z"/>
<path d="M11505 509 c-11 -16 -1 -19 13 -3 7 8 8 14 3 14 -5 0 -13 -5 -16 -11z"/>
<path d="M11540 516 c0 -2 7 -7 16 -10 8 -3 12 -2 9 4 -6 10 -25 14 -25 6z"/>
<path d="M11590 478 c0 -23 3 -38 7 -35 3 4 6 21 5 38 -1 28 2 31 24 26 13 -2
24 0 24 4 0 5 -13 9 -30 9 -29 0 -30 -2 -30 -42z"/>
<path d="M11672 478 l1 -43 4 37 c4 31 8 37 31 41 24 4 24 4 -5 6 -33 1 -33 0
-31 -41z"/>
<path d="M11825 510 c-8 -13 3 -30 18 -30 8 0 7 3 -2 9 -7 5 -10 14 -7 20 4 6
5 11 2 11 -3 0 -8 -4 -11 -10z"/>
<path d="M12735 510 c-3 -6 1 -7 9 -4 18 7 21 14 7 14 -6 0 -13 -4 -16 -10z"/>
<path d="M12850 516 c0 -2 7 -7 16 -10 8 -3 12 -2 9 4 -6 10 -25 14 -25 6z"/>
<path d="M12901 478 l2 -43 7 35 c4 19 8 29 9 21 0 -8 3 -12 6 -9 8 7 -5 38
-16 38 -5 0 -8 -19 -8 -42z"/>
<path d="M12966 504 c-9 -24 -7 -27 9 -10 17 17 19 26 6 26 -5 0 -12 -7 -15
-16z"/>
<path d="M13011 478 c1 -24 3 -35 6 -26 2 9 14 18 26 20 34 5 29 42 -5 46 -27
3 -28 2 -27 -40z m49 17 c0 -8 -9 -15 -20 -15 -11 0 -20 7 -20 15 0 8 9 15 20
15 11 0 20 -7 20 -15z"/>
<path d="M13152 478 l1 -43 4 37 c4 31 8 37 31 41 24 4 24 4 -5 6 -33 1 -33 0
-31 -41z"/>
<path d="M13233 513 c9 -2 25 -2 35 0 9 3 1 5 -18 5 -19 0 -27 -2 -17 -5z"/>
<path d="M13313 513 c9 -2 23 -2 30 0 6 3 -1 5 -18 5 -16 0 -22 -2 -12 -5z"/>
<path d="M11469 478 c-3 -22 -1 -34 4 -29 5 5 7 21 5 37 -3 27 -4 26 -9 -8z"/>
<path d="M10122 480 c0 -14 2 -19 5 -12 2 6 2 18 0 25 -3 6 -5 1 -5 -13z"/>
<path d="M12810 476 c0 -14 4 -27 8 -30 5 -3 6 8 4 25 -5 35 -12 38 -12 5z"/>
<path d="M9713 468 c1 -15 6 -23 11 -18 4 4 4 16 -2 26 -9 16 -10 14 -9 -8z"/>
<path d="M11132 465 c0 -16 2 -22 5 -12 2 9 2 23 0 30 -3 6 -5 -1 -5 -18z"/>
<path d="M11632 481 c-11 -7 -11 -9 2 -14 10 -4 16 -1 16 8 0 17 -1 17 -18 6z"/>
<path d="M12720 480 c0 -17 17 -47 23 -40 2 3 -2 16 -10 30 -7 14 -13 18 -13
10z"/>
<path d="M12981 474 c0 -11 3 -14 6 -6 3 7 2 16 -1 19 -3 4 -6 -2 -5 -13z"/>
<path d="M9745 461 c-3 -8 -3 -16 0 -19 3 -3 5 0 5 6 0 7 11 12 25 12 14 0 25
3 25 8 0 13 -50 7 -55 -7z"/>
<path d="M10199 471 c7 -5 10 -14 7 -20 -4 -6 -2 -11 3 -11 6 0 11 9 11 20 0
12 -7 20 -17 20 -14 0 -15 -2 -4 -9z"/>
<path d="M11549 471 c7 -5 10 -14 7 -20 -4 -6 -2 -11 3 -11 6 0 11 9 11 20 0
12 -7 20 -17 20 -14 0 -15 -2 -4 -9z"/>
<path d="M11500 461 c0 -6 4 -13 10 -16 6 -3 7 1 4 9 -7 18 -14 21 -14 7z"/>
<path d="M12946 453 c-6 -14 -5 -15 5 -6 7 7 10 15 7 18 -3 3 -9 -2 -12 -12z"/>
<path d="M11175 450 c3 -5 8 -10 11 -10 2 0 4 5 4 10 0 6 -5 10 -11 10 -5 0
-7 -4 -4 -10z"/>
<path d="M150 4640 l0 -40 60 0 60 0 0 40 0 40 -60 0 -60 0 0 -40z m110 0 c0
-29 -1 -30 -50 -30 -49 0 -50 1 -50 30 0 29 1 30 50 30 49 0 50 -1 50 -30z"/>
<path d="M560 4290 c0 -5 7 -10 15 -10 8 0 15 5 15 10 0 6 -7 10 -15 10 -8 0
-15 -4 -15 -10z"/>
<path d="M660 3920 c0 -5 5 -10 11 -10 5 0 7 5 4 10 -3 6 -8 10 -11 10 -2 0
-4 -4 -4 -10z"/>
<path d="M160 3590 c0 -6 27 -10 60 -10 33 0 60 4 60 10 0 6 -27 10 -60 10
-33 0 -60 -4 -60 -10z"/>
<path d="M173 3553 c9 -2 23 -2 30 0 6 3 -1 5 -18 5 -16 0 -22 -2 -12 -5z"/>
<path d="M243 3553 c9 -2 23 -2 30 0 6 3 -1 5 -18 5 -16 0 -22 -2 -12 -5z"/>
<path d="M173 3523 c9 -2 23 -2 30 0 6 3 -1 5 -18 5 -16 0 -22 -2 -12 -5z"/>
<path d="M243 3523 c9 -2 23 -2 30 0 6 3 -1 5 -18 5 -16 0 -22 -2 -12 -5z"/>
<path d="M528 3573 c7 -3 16 -2 19 1 4 3 -2 6 -13 5 -11 0 -14 -3 -6 -6z"/>
<path d="M520 3534 c0 -17 22 -14 28 4 2 7 -3 12 -12 12 -9 0 -16 -7 -16 -16z"/>
<path d="M670 3574 c-10 -11 -11 -20 -3 -32 17 -27 38 -20 38 12 0 34 -16 44
-35 20z"/>
<path d="M190 3230 c0 -5 5 -10 10 -10 6 0 10 5 10 10 0 6 -4 10 -10 10 -5 0
-10 -4 -10 -10z"/>
<path d="M185 3185 c0 -16 6 -25 16 -25 12 0 15 7 11 25 -2 14 -9 25 -16 25
-6 0 -11 -11 -11 -25z"/>
<path d="M730 3210 c0 -5 7 -10 15 -10 8 0 15 5 15 10 0 6 -7 10 -15 10 -8 0
-15 -4 -15 -10z"/>
<path d="M570 2855 c-17 -20 -8 -50 15 -50 14 0 21 8 23 26 4 31 -20 45 -38
24z"/>
<path d="M8924 266 c-9 -24 12 -44 28 -28 10 9 8 16 -5 29 -15 15 -17 15 -23
-1z"/>
<path d="M9015 270 c-3 -5 1 -10 10 -10 9 0 13 5 10 10 -3 6 -8 10 -10 10 -2
0 -7 -4 -10 -10z"/>
<path d="M9010 238 c0 -4 7 -8 15 -8 8 0 15 4 15 8 0 5 -7 9 -15 9 -8 0 -15
-4 -15 -9z"/>
<path d="M6962 7294 c-15 -10 -22 -25 -22 -48 0 -39 15 -56 50 -56 35 0 50 17
50 56 0 29 -27 64 -50 64 -3 0 -16 -7 -28 -16z m48 -19 c18 -21 4 -65 -20 -65
-24 0 -38 44 -20 65 7 8 16 15 20 15 4 0 13 -7 20 -15z"/>
<path d="M7278 7299 c-29 -16 -22 -49 12 -60 40 -14 39 -33 -1 -25 -22 4 -29
2 -26 -7 2 -6 19 -12 38 -12 29 0 34 4 37 26 3 22 -2 29 -29 38 -25 8 -30 14
-21 23 8 8 15 8 27 -2 8 -7 19 -10 23 -6 4 4 -2 14 -12 22 -23 16 -25 17 -48
3z"/>
<path d="M12570 7303 c-60 -21 -48 -113 15 -113 51 0 73 62 35 100 -21 21 -25
22 -50 13z m38 -55 c-2 -25 -8 -33 -23 -33 -15 0 -21 8 -23 33 -3 29 -1 32 23
32 24 0 26 -3 23 -32z"/>
<path d="M12865 7296 c-23 -17 -14 -43 20 -56 37 -14 32 -33 -6 -25 -24 5 -30
4 -27 -6 6 -18 55 -24 74 -8 22 18 17 38 -13 51 -37 16 -36 15 -28 28 5 8 10
8 21 0 22 -19 40 -7 20 13 -21 21 -36 21 -61 3z"/>
<path d="M4275 7290 c3 -5 13 -10 21 -10 10 0 14 -12 14 -45 0 -25 5 -45 10
-45 6 0 10 20 10 45 0 33 4 45 15 45 8 0 15 5 15 10 0 6 -21 10 -46 10 -27 0
-43 -4 -39 -10z"/>
<path d="M4380 7245 c0 -42 3 -55 15 -55 12 0 15 13 15 55 0 42 -3 55 -15 55
-12 0 -15 -13 -15 -55z"/>
<path d="M4425 7290 c3 -5 13 -10 21 -10 10 0 14 -12 14 -45 0 -25 5 -45 10
-45 6 0 10 20 10 45 0 33 4 45 14 45 8 0 18 5 21 10 4 6 -13 10 -45 10 -32 0
-49 -4 -45 -10z"/>
<path d="M4530 7245 l0 -55 40 0 c22 0 40 5 40 10 0 6 -11 10 -25 10 -23 0
-25 4 -25 45 0 33 -4 45 -15 45 -12 0 -15 -13 -15 -55z"/>
<path d="M4620 7245 l0 -55 40 0 c22 0 40 5 40 10 0 6 -11 10 -25 10 -16 0
-25 6 -25 15 0 9 10 15 26 15 14 0 23 4 19 10 -3 6 -15 10 -26 10 -10 0 -19 5
-19 10 0 6 11 10 25 10 14 0 25 5 25 10 0 6 -18 10 -40 10 l-40 0 0 -55z"/>
<path d="M6830 7293 c0 -5 8 -30 17 -56 22 -61 41 -58 64 11 14 42 15 52 4 52
-7 0 -16 -13 -20 -30 -10 -43 -23 -46 -31 -5 -3 20 -12 35 -20 35 -8 0 -14 -3
-14 -7z"/>
<path d="M7055 7290 c3 -5 13 -10 21 -10 10 0 14 -12 14 -45 0 -25 5 -45 10
-45 6 0 10 20 10 45 0 33 4 45 15 45 8 0 15 5 15 10 0 6 -21 10 -46 10 -27 0
-43 -4 -39 -10z"/>
<path d="M7160 7245 l0 -55 40 0 c22 0 40 5 40 10 0 6 -11 10 -25 10 -16 0
-25 6 -25 15 0 8 9 15 20 15 11 0 20 5 20 10 0 6 -9 10 -20 10 -11 0 -20 5
-20 10 0 6 9 10 19 10 11 0 23 5 26 10 4 6 -10 10 -34 10 l-41 0 0 -55z"/>
<path d="M9870 7290 c0 -5 7 -10 15 -10 11 0 15 -12 15 -45 0 -33 4 -45 15
-45 11 0 15 12 15 45 0 33 4 45 15 45 8 0 15 5 15 10 0 6 -20 10 -45 10 -25 0
-45 -4 -45 -10z"/>
<path d="M9980 7245 c0 -30 5 -55 10 -55 6 0 10 25 10 55 0 30 -4 55 -10 55
-5 0 -10 -25 -10 -55z"/>
<path d="M10020 7290 c0 -5 7 -10 15 -10 11 0 15 -12 15 -45 0 -33 4 -45 15
-45 11 0 15 12 15 45 0 33 4 45 15 45 8 0 15 5 15 10 0 6 -20 10 -45 10 -25 0
-45 -4 -45 -10z"/>
<path d="M10130 7245 l0 -55 35 0 c19 0 35 5 35 10 0 6 -11 10 -25 10 -23 0
-25 4 -25 45 0 25 -4 45 -10 45 -5 0 -10 -25 -10 -55z"/>
<path d="M10220 7245 l0 -55 35 0 c19 0 35 5 35 10 0 6 -11 10 -25 10 -16 0
-25 6 -25 15 0 9 9 15 25 15 14 0 25 5 25 10 0 6 -11 10 -25 10 -14 0 -25 5
-25 10 0 6 11 10 25 10 14 0 25 5 25 10 0 6 -16 10 -35 10 l-35 0 0 -55z"/>
<path d="M12439 7248 c23 -69 44 -73 65 -12 19 57 20 67 4 62 -6 -2 -17 -20
-23 -39 l-12 -34 -12 38 c-7 20 -19 37 -26 37 -11 0 -10 -10 4 -52z"/>
<path d="M12650 7290 c0 -5 7 -10 15 -10 11 0 15 -12 15 -45 0 -33 4 -45 15
-45 11 0 15 12 15 45 0 33 4 45 15 45 8 0 15 5 15 10 0 6 -20 10 -45 10 -25 0
-45 -4 -45 -10z"/>
<path d="M12760 7245 l0 -55 35 0 c19 0 35 5 35 10 0 6 -11 10 -25 10 -16 0
-25 6 -25 15 0 9 9 15 25 15 14 0 25 5 25 10 0 6 -11 10 -25 10 -14 0 -25 5
-25 10 0 6 11 10 25 10 14 0 25 5 25 10 0 6 -16 10 -35 10 l-35 0 0 -55z"/>
<path d="M7068 6899 c-10 -5 -18 -14 -18 -20 0 -5 9 -4 20 3 14 9 22 10 31 1
8 -8 2 -20 -20 -46 -17 -19 -31 -37 -31 -41 0 -3 17 -5 38 -5 23 1 28 3 15 6
-28 5 -29 15 -3 38 23 20 26 45 8 63 -14 14 -18 14 -40 1z"/>
<path d="M12661 6864 c-27 -45 -26 -54 3 -54 13 0 27 -6 29 -12 7 -18 29 12
22 30 -3 8 -5 27 -5 43 0 40 -23 37 -49 -7z m29 -9 c0 -16 -6 -25 -15 -25 -18
0 -19 4 -3 30 16 26 18 25 18 -5z"/>
<path d="M3990 6881 c23 -6 26 -13 31 -71 l5 -65 5 65 c4 58 6 65 29 71 16 5
5 7 -35 7 -40 0 -51 -2 -35 -7z"/>
<path d="M4388 6858 c-2 -18 -1 -50 1 -70 3 -36 5 -38 36 -38 32 0 65 21 65
40 0 5 -7 15 -15 24 -9 9 -11 17 -5 21 16 10 12 42 -6 49 -9 3 -28 6 -44 6
-25 0 -29 -4 -32 -32z m61 13 c19 -12 6 -41 -18 -41 -23 0 -35 15 -27 35 6 17
24 19 45 6z m6 -64 c24 -18 11 -37 -26 -37 -21 0 -29 5 -29 18 0 34 23 42 55
19z"/>
<path d="M4805 6873 c-4 -13 -15 -23 -24 -24 -10 0 -11 -2 -3 -6 18 -7 15 -30
-5 -37 -11 -5 -14 -9 -6 -14 6 -4 13 -16 16 -27 5 -19 5 -19 12 3 4 12 14 22
21 22 8 0 14 -10 15 -22 l0 -23 9 23 c5 12 15 22 21 22 8 0 7 5 -2 16 -11 14
-11 18 4 29 11 8 14 16 8 19 -6 4 -8 13 -4 21 3 8 1 15 -5 15 -5 0 -12 -9 -15
-20 -7 -27 -25 -25 -30 3 l-4 22 -8 -22z m33 -50 c-5 -25 -28 -28 -28 -4 0 12
6 21 16 21 9 0 14 -7 12 -17z"/>
<path d="M4928 6846 c-36 -56 -35 -66 7 -66 26 0 35 -4 36 -17 0 -14 2 -15 6
-3 3 8 11 19 17 23 8 6 7 10 -1 14 -8 3 -13 23 -13 49 0 57 -17 57 -52 0z m39
-43 c-3 -2 -15 -3 -26 -1 -20 3 -20 3 2 38 l22 35 3 -33 c2 -19 1 -36 -1 -39z"/>
<path d="M9068 6883 c20 -4 22 -10 22 -69 0 -36 4 -64 10 -64 6 0 10 28 10 64
0 63 1 65 28 69 15 2 0 4 -33 4 -33 0 -50 -2 -37 -4z"/>
<path d="M9460 6820 c0 -40 4 -70 10 -70 6 0 10 14 10 30 0 27 3 30 30 30 17
0 30 5 30 10 0 6 -13 10 -30 10 -25 0 -30 4 -30 24 0 21 5 25 38 29 34 3 33 4
-10 5 l-48 2 0 -70z"/>
<path d="M10160 6820 c0 -40 4 -70 10 -70 6 0 10 14 10 30 0 20 5 30 15 30 8
0 21 -13 30 -30 9 -16 20 -30 25 -30 14 0 12 12 -5 37 -13 18 -13 22 0 33 36
30 9 70 -47 70 l-38 0 0 -70z m74 37 c8 -14 8 -20 -4 -27 -31 -20 -50 -12 -50
21 0 25 3 30 21 27 12 -2 27 -11 33 -21z"/>
<path d="M10950 6875 c0 -7 -8 -19 -17 -24 -10 -6 -12 -11 -5 -11 18 0 15 -27
-5 -39 -10 -6 -12 -11 -5 -11 6 0 12 -10 13 -22 l0 -23 11 23 c14 28 42 30 35
2 -3 -11 -1 -20 4 -20 5 0 9 9 9 20 0 12 7 20 18 21 10 0 12 3 5 6 -20 7 -16
43 5 44 10 0 12 3 5 6 -7 2 -13 14 -14 26 0 21 0 21 -10 -1 -10 -26 -36 -25
-31 2 2 9 -2 16 -8 16 -5 0 -10 -7 -10 -15z m40 -49 c0 -18 -16 -29 -30 -21
-13 8 -1 35 16 35 8 0 14 -6 14 -14z"/>
<path d="M11055 6870 c-19 -21 -7 -28 13 -8 9 9 12 -2 12 -50 0 -35 4 -62 10
-62 6 0 10 30 10 70 0 76 -11 88 -45 50z"/>
<path d="M4280 6865 c0 -8 -6 -15 -12 -15 -10 0 -10 -2 -1 -8 6 -4 13 -25 15
-47 2 -31 8 -41 23 -43 16 -3 18 -1 8 9 -7 7 -13 27 -13 45 0 18 6 35 13 37
10 4 10 6 0 6 -7 1 -13 8 -13 16 0 8 -4 15 -10 15 -5 0 -10 -7 -10 -15z"/>
<path d="M9352 6860 c-7 -12 -8 -21 -2 -25 6 -3 10 -24 10 -46 0 -28 4 -39 15
-39 17 0 20 16 5 25 -13 8 -13 48 -1 61 6 5 5 15 -3 26 -11 15 -13 15 -24 -2z"/>
<path d="M9780 6865 c0 -8 -6 -15 -12 -15 -10 0 -10 -2 -1 -8 6 -4 13 -25 15
-47 2 -31 8 -41 23 -43 16 -3 18 -1 8 9 -7 7 -13 27 -13 45 0 18 6 35 13 37
10 4 10 6 0 6 -7 1 -13 8 -13 16 0 8 -4 15 -10 15 -5 0 -10 -7 -10 -15z"/>
<path d="M10820 6867 c0 -9 -6 -17 -12 -17 -10 0 -10 -2 -1 -8 6 -4 13 -25 15
-47 2 -31 8 -41 23 -43 16 -3 18 -1 8 9 -15 15 -18 76 -4 81 4 2 0 12 -10 22
-17 17 -19 18 -19 3z"/>
<path d="M4076 6834 c-10 -25 -7 -59 6 -72 17 -17 53 -15 69 5 12 15 12 16 -6
9 -11 -4 -22 -8 -25 -8 -20 -2 -30 4 -30 17 0 10 11 15 35 15 38 0 40 2 25 31
-13 24 -65 26 -74 3z m62 -11 c2 -8 -6 -13 -22 -13 -25 0 -33 10 -19 24 10 10
36 3 41 -11z"/>
<path d="M4180 6830 c0 -12 10 -25 25 -32 14 -6 24 -16 22 -22 -5 -12 -11 -12
-42 0 -18 7 -19 6 -6 -10 20 -24 65 -17 69 10 2 17 -5 24 -29 33 -26 9 -30 14
-21 23 10 10 17 10 33 -1 18 -10 20 -10 17 1 -3 7 -19 14 -36 16 -27 3 -32 0
-32 -18z"/>
<path d="M4512 6803 l3 -48 38 0 37 -1 0 48 c0 26 -4 48 -10 48 -5 0 -10 -18
-10 -40 0 -33 -3 -40 -20 -40 -17 0 -20 7 -20 40 0 22 -5 40 -11 40 -6 0 -9
-19 -7 -47z"/>
<path d="M4618 6825 c-8 -19 -8 -31 1 -51 10 -23 16 -25 42 -20 22 4 29 2 26
-7 -2 -6 -18 -11 -36 -10 -26 1 -30 -1 -20 -13 32 -39 79 6 79 74 l0 49 -40 1
c-34 2 -42 -2 -52 -23z m62 0 c18 -22 3 -57 -23 -53 -25 3 -34 32 -17 53 16
19 24 19 40 0z"/>
<path d="M9150 6830 c-25 -46 11 -90 60 -75 31 10 24 23 -11 21 -18 0 -34 5
-36 12 -3 8 7 12 32 12 32 0 36 3 33 23 -4 32 -62 37 -78 7z m58 -8 c2 -7 -7
-12 -23 -12 -24 0 -26 2 -15 15 14 17 31 16 38 -3z"/>
<path d="M9256 6841 c-10 -16 5 -39 30 -45 13 -4 24 -11 24 -16 0 -15 -21 -23
-33 -11 -17 17 -31 13 -17 -5 19 -22 64 -14 68 12 2 17 -5 24 -29 33 -25 8
-30 14 -21 23 8 8 15 8 27 -2 17 -14 31 -8 20 9 -8 13 -62 15 -69 2z"/>
<path d="M9572 6838 c-7 -7 -12 -24 -12 -38 0 -14 5 -31 12 -38 16 -16 53 -15
67 2 10 12 6 14 -20 13 -18 -1 -34 4 -36 11 -3 8 7 12 31 12 23 0 36 5 36 13
0 19 -21 37 -45 37 -12 0 -26 -5 -33 -12z m56 -15 c2 -8 -6 -13 -22 -13 -25 0
-33 10 -19 24 10 10 36 3 41 -11z"/>
<path d="M9675 6840 c-11 -17 3 -24 19 -11 8 7 20 10 26 6 18 -11 11 -24 -17
-27 -22 -2 -28 -8 -28 -28 0 -22 5 -25 38 -27 l38 -1 -3 46 c-3 45 -5 47 -35
50 -17 2 -34 -2 -38 -8z m55 -54 c0 -17 -27 -29 -35 -16 -4 6 -3 15 0 20 9 15
35 12 35 -4z"/>
<path d="M9842 6803 l3 -48 38 0 37 -1 0 48 c0 26 -4 48 -10 48 -5 0 -10 -18
-10 -40 0 -33 -3 -40 -20 -40 -17 0 -20 7 -20 40 0 22 -5 40 -11 40 -6 0 -9
-19 -7 -47z"/>
<path d="M9952 6798 c1 -43 2 -46 5 -16 3 24 12 43 26 53 21 15 21 15 -6 15
-26 0 -27 -2 -25 -52z"/>
<path d="M10010 6829 c-27 -49 29 -104 67 -66 14 14 12 15 -17 14 -19 -1 -35
3 -37 11 -3 8 7 12 31 12 36 0 41 5 30 34 -9 24 -61 21 -74 -5z m58 -6 c2 -8
-6 -13 -22 -13 -19 0 -24 4 -19 15 6 18 34 16 41 -2z"/>
<path d="M10292 6838 c-7 -7 -12 -24 -12 -38 0 -14 5 -31 12 -38 15 -15 55
-16 63 -1 10 15 -3 25 -16 12 -14 -14 -39 -6 -39 13 0 9 12 14 35 14 38 0 40
2 25 31 -12 21 -50 25 -68 7z m52 -13 c4 -11 -1 -15 -19 -15 -24 0 -32 10 -18
23 11 12 31 8 37 -8z"/>
<path d="M10390 6830 c-23 -42 22 -99 59 -75 7 3 11 -2 11 -14 0 -12 5 -21 10
-21 6 0 10 28 10 63 l0 64 -40 1 c-30 1 -42 -3 -50 -18z m60 -5 c16 -19 3 -55
-20 -55 -23 0 -36 36 -20 55 7 8 16 15 20 15 4 0 13 -7 20 -15z"/>
<path d="M10500 6813 c0 -51 11 -65 46 -61 34 4 41 17 35 66 l-5 37 -6 -40
c-4 -32 -10 -41 -27 -43 -21 -3 -23 1 -23 37 0 23 -4 41 -10 41 -5 0 -10 -17
-10 -37z"/>
<path d="M10617 6843 c-12 -11 -8 -68 5 -81 15 -15 55 -16 63 -1 10 15 -3 25
-16 12 -14 -14 -39 -6 -39 13 0 9 12 14 35 14 38 0 40 2 25 31 -10 19 -59 27
-73 12z m53 -18 c11 -13 8 -15 -14 -15 -25 0 -33 10 -19 23 10 11 19 8 33 -8z"/>
<path d="M10716 6835 c-6 -17 19 -45 40 -45 8 0 14 -4 14 -9 0 -16 -21 -24
-33 -12 -17 17 -31 13 -17 -5 19 -22 64 -14 68 12 2 16 -4 24 -28 33 -17 6
-29 15 -25 21 9 14 32 13 38 -2 2 -7 8 -10 12 -6 13 12 -6 28 -35 28 -15 0
-30 -7 -34 -15z"/>
<path d="M4530 6569 c0 -5 -4 -7 -10 -4 -6 3 -7 -1 -4 -9 9 -23 24 -20 24 4 0
11 -2 20 -5 20 -3 0 -5 -5 -5 -11z"/>
<path d="M4431 6558 c0 -9 -11 -19 -23 -21 -22 -4 -23 -4 -1 -6 16 -1 20 -6
17 -23 -4 -21 -4 -21 6 2 6 13 9 33 7 45 -3 14 -5 15 -6 3z"/>
<path d="M4472 6558 c-22 -22 -7 -69 23 -68 5 0 2 5 -7 11 -21 12 -23 40 -6
57 7 7 10 12 7 12 -3 0 -10 -5 -17 -12z"/>
<path d="M4564 6555 c-3 -8 -4 -20 -2 -27 3 -7 7 -1 10 15 6 29 1 36 -8 12z"/>
<path d="M4604 6526 c0 -34 1 -36 9 -15 5 13 13 31 17 39 5 11 3 16 -9 16 -12
0 -16 -10 -17 -40z"/>
<path d="M4657 6550 c3 -11 7 -20 9 -20 2 0 4 9 4 20 0 11 -4 20 -9 20 -5 0
-7 -9 -4 -20z"/>
<path d="M4791 6554 c0 -11 3 -14 6 -6 3 7 2 16 -1 19 -3 4 -6 -2 -5 -13z"/>
<path d="M10206 6557 c3 -10 9 -15 12 -12 3 3 0 11 -7 18 -10 9 -11 8 -5 -6z"/>
<path d="M10256 6534 c-4 -20 -5 -38 -3 -40 3 -3 8 11 11 32 4 20 5 38 3 40
-3 3 -8 -11 -11 -32z"/>
<path d="M10342 6561 c-8 -5 -12 -16 -10 -25 2 -12 6 -10 15 9 6 14 10 25 10
25 -1 0 -8 -4 -15 -9z"/>
<path d="M10030 6552 c0 -7 -10 -13 -22 -13 -19 -1 -19 -2 -5 -6 11 -3 16 -11
13 -19 -3 -8 -2 -14 3 -14 9 0 22 52 15 59 -2 2 -4 -1 -4 -7z"/>
<path d="M10292 6530 c0 -14 2 -19 5 -12 2 6 2 18 0 25 -3 6 -5 1 -5 -13z"/>
<path d="M4208 6533 c23 -2 59 -2 80 0 20 2 1 4 -43 4 -44 0 -61 -2 -37 -4z"/>
<path d="M4732 6520 c0 -14 2 -19 5 -12 2 6 2 18 0 25 -3 6 -5 1 -5 -13z"/>
<path d="M9798 6533 c23 -2 61 -2 85 0 23 2 4 4 -43 4 -47 0 -66 -2 -42 -4z"/>
<path d="M10382 6520 c0 -14 2 -19 5 -12 2 6 2 18 0 25 -3 6 -5 1 -5 -13z"/>
<path d="M4516 6515 c-3 -8 -1 -15 4 -15 6 0 10 7 10 15 0 8 -2 15 -4 15 -2 0
-6 -7 -10 -15z"/>
<path d="M4783 6515 c-3 -9 -3 -18 -1 -21 3 -3 8 4 11 16 6 23 -1 27 -10 5z"/>
<path d="M10110 6515 c-14 -17 -36 -20 -43 -5 -3 6 -4 5 -3 -2 4 -21 54 -18
59 4 6 22 3 23 -13 3z"/>
<path d="M10151 6514 c0 -11 3 -14 6 -6 3 7 2 16 -1 19 -3 4 -6 -2 -5 -13z"/>
<path d="M10202 6510 c0 -14 2 -19 5 -12 2 6 2 18 0 25 -3 6 -5 1 -5 -13z"/>
<path d="M4691 6504 c0 -11 3 -14 6 -6 3 7 2 16 -1 19 -3 4 -6 -2 -5 -13z"/>
<path d="M9970 6511 c0 -10 19 -25 25 -20 1 2 -3 10 -11 17 -8 7 -14 8 -14 3z"/>
<path d="M4378 6498 c5 -5 16 -8 23 -6 8 3 3 7 -10 11 -17 4 -21 3 -13 -5z"/>
</g>
</svg>
